# xmcd
#
# Track frame offsets: 
#        213
#        12407
#        26546
#        38702
#        49824
#        66983
#        82108
#        95129
#        107139
#        123202
#        134345
#        148233
#        161141
#        179244
#        192571
#        203478
#        215490
#        229114
#        242087
#        254167
#        267727
#        282269
#        294707
#        303855
#        314759
#        329734
#
# Disc length: 4572 seconds
#
# Revision: 0
# Processed by: cddbd v1.5.2PL0 Copyright (c) Steve Scherf et al.
# Submitted via: ExactAudioCopy v0.95b4
#
DISCID=ad11da1a
DTITLE=VERN GOSDIN - 40 YEARS OF THE VOICE
DYEAR=2008
DGENRE=COUNTRY
TTITLE0=I FELL OFF THE WAGON
TTITLE1=I'LL TRY
TTITLE2=SOMEONE I CAN TURN TO
TTITLE3=THE SOUNDS OF GOODBYE
TTITLE4=ANY OLD MIRACLE
TTITLE5=TENNESSEE COURAGE
TTITLE6=THE LAST TO KNOW
TTITLE7=OH ME OH MY
TTITLE8=FAVORITE FOOL OF ALL
TTITLE9=LOUISIANA MAN
TTITLE10=TODAY MY WORLD SLIPPED AWAY
TTITLE11=A HANGIN' ON
TTITLE12=BABY THAT'S COLD
TTITLE13=I FEEL LOVE CLOSIN' IN
TTITLE14=YOUR STRANGE LOVE
TTITLE15=I COULDN'T LOVE YOU MORE
TTITLE16=THE SWEETER THE LIPS
TTITLE17=MY LOVE KEEPS REACHIN' OUT FOR YOU
TTITLE18=TO DIE NO MORE
TTITLE19=LOVE IS UNDERNEATH FOR US TO FIND
TTITLE20=LIVING IN THE LOVE
TTITLE21=JUST ENOUGH TO KEEP ME FROM LEAVIN' YOU
TTITLE22=BOWLING GREEN
TTITLE23=TRY AND CATCH THE WIND
TTITLE24=RODEO PRINCESS
TTITLE25=NOBODY'S DONE THAT YET
EXTD=
EXTT0=
EXTT1=
EXTT2=
EXTT3=
EXTT4=
EXTT5=
EXTT6=
EXTT7=
EXTT8=
EXTT9=
EXTT10=
EXTT11=
EXTT12=
EXTT13=
EXTT14=
EXTT15=
EXTT16=
EXTT17=
EXTT18=
EXTT19=
EXTT20=
EXTT21=
EXTT22=
EXTT23=
EXTT24=
EXTT25=
PLAYORDER=
